PathFileType	4	(X/Y/Z)	C:/Users/beibeiliu/ov580/test_trc/capture2\sequence.19_training_dense_left.trc
DataRate	CameraRate	NumFrames	NumMarkers	Units	OrigDataRate	OrigDataStartFrame	OrigNumFrames
120	120	18	19	mm	120	176	351
Frame#	Time	ThumbCMC			ThumbMCP			ThumbIP			ThumbTip			IndexMCP			IndexPIP			IndexTip			MiddleMCP			MiddlePIP			MiddleTip			RingMCP			RingPIP			RingTip			PinkyMCP			PinkyPIP			PinkyTip			BackHand1			BackHand2			BackHand3	
		X0	Y0	Z0	X1	Y1	Z1	X2	Y2	Z2	X3	Y3	Z3	X4	Y4	Z4	X5	Y5	Z5	X6	Y6	Z6	X7	Y7	Z7	X8	Y8	Z8	X9	Y9	Z9	X10	Y10	Z10	X11	Y11	Z11	X12	Y12	Z12	X13	Y13	Z13	X14	Y14	Z14	X15	Y15	Z15	X16	Y16	Z16	X17	Y17	Z17	X18	Y18	Z18	
175	1.45833	-120.376	139.337	34.5962	-92.2868	126.14	49.3225	-69.6634	115.149	53.0699	-48.6237	106.445	57.7611	-82.8711	104.001	-21.1626	-60.2663	87.3247	-26.0666	-44.1387	62.7953	-14.4662	-89.9733	83.4315	-29.1639	-69.6653	61.5575	-24.0685	-57.2499	46.0801	8.65422	-102.114	69.8424	-25.4472	-79.397	51.7707	-14.016	-71.4092	44.2478	12.3806	-120.697	57.3275	-19.6794	-100.66	43.009	-6.60166	-88.8942	45.2261	22.8929	-147.457	105.068	-12.5181	-165.698	118.258	-0.0690301	-136.692	135.402	-0.504782	
176	1.46667	-121.083	143.379	29.6297	-95.5965	135.635	45.5697	-71.8106	129.149	50.2106	-50.4888	122.052	52.7678	-85.2279	111.754	-24.755	-60.1709	91.6964	-28.1462	-43.0529	75.5621	-18.7317	-89.6125	90.2122	-31.5606	-65.4131	74.0653	-26.7044	-47.8681	59.257	4.05283	-100.948	74.2463	-26.7853	-77.7415	56.5338	-18.2342	-62.5064	54.149	12.8104	-115.192	64.68	-19.4091	-93.3426	46.8025	-6.01205	-80.163	49.3033	19.4732	-149.297	102.514	-15.3939	-169.97	114.524	-2.04089	-139.416	136.318	-6.02612	
177	1.475	-127.198	150.43	26.3754	-99.3869	143.636	41.134	-76.6385	139.874	44.2883	-51.2764	131.774	44.4357	-84.7792	118.819	-31.2505	-61.9395	102.582	-33.8366	-38.455	87.0592	-21.9852	-92.7247	97.1012	-33.5385	-61.96	79.9465	-29.1777	-46.0122	69.4876	-3.58874	-97.7016	81.0894	-30.0271	-75.0481	64.6129	-22.1857	-56.5339	62.5783	7.84255	-117.878	64.1766	-19.1156	-90.9866	51.3631	-11.0359	-71.8225	53.6986	14.8173	-148.434	99.3067	-19.109	-175.447	109.024	-0.955674	-148.576	134.397	-8.7641	
178	1.48333	-132.162	151.315	22.7075	-104.732	144.657	32.9964	-76.0085	147.608	38.6682	-55.2582	142.704	40.1741	-91.486	124.082	-33.3577	-65.8329	108.144	-39.7734	-37.853	96.1677	-29.3976	-89.4616	103.106	-39.8443	-60.8379	89.8499	-34.0929	-41.6035	80.4597	-10.0713	-99.4746	84.6362	-33.1469	-71.6737	68.028	-25.1417	-52.5083	70.8282	-0.640409	-112.226	64.7981	-23.3711	-88.5959	58.8569	-17.3909	-65.749	60.9151	4.09587	-150.846	95.8838	-19.4368	-173.633	108.187	-5.1477	-152.205	134.715	-11.4237	
179	1.49167	-139.283	150.126	20.1771	-112.187	150.471	31.3843	-82.2284	149.671	31.7735	-62.1141	146.554	32.0183	-93.5661	124.565	-41.1338	-70.1656	119.026	-46.5397	-46.2229	102.041	-38.1509	-95.6788	107.019	-43.3356	-66.5325	96.923	-42.9899	-42.8131	87.1669	-19.7384	-101.9	82.5763	-36.5107	-72.9489	76.8455	-32.5296	-50.5134	76.6521	-7.26186	-110.191	66.2415	-27.6026	-83.3564	63.2958	-22.2445	-62.6474	64.6429	-3.27488	-154.236	94.5489	-20.2774	-176.58	104.073	-2.85332	-158.408	130.125	-12.1375	
180	1.5	-143.504	147.444	14.4198	-116.869	152.414	25.8858	-84.0912	157.152	24.5023	-61.8747	152.584	21.7615	-104.51	124.736	-44.7643	-73.7998	118.304	-52.1854	-47.3297	112.788	-45.4022	-96.7807	108.716	-50.2748	-66.0558	101.887	-48.534	-42.3892	96.6336	-26.3987	-99.7004	84.3984	-44.1112	-74.3335	83.4125	-40.0617	-50.3414	83.7687	-15.1385	-108.845	71.9155	-32.1675	-83.5584	67.4724	-28.9478	-60.3713	70.53	-12.2336	-154.01	95.5899	-25.4104	-177.206	95.7037	-9.62989	-161.88	123.435	-14.2909	
181	1.50833	-148.743	143.679	9.33727	-118.749	155.849	19.0384	-95.0341	162.83	18.4436	-69.9348	162.281	13.589	-108.219	127.937	-54.2261	-83.8173	123.834	-59.5133	-51.4628	121.769	-51.4162	-104.362	107.67	-54.9736	-74.7478	107.88	-56.1579	-45.1163	103.387	-32.5958	-106.292	85.3371	-46.1361	-72.3316	86.9693	-43.0785	-53.464	91.3911	-23.5654	-111.819	67.7948	-33.9757	-82.2731	73.7499	-33.0951	-58.1345	77.2426	-17.3509	-157.052	90.7436	-27.4427	-180.148	89.2167	-5.86176	-164.753	118.319	-20.6934	
182	1.51667	-157.835	140.078	8.19919	-127.25	155.466	13.9658	-101.524	166.455	11.002	-81.3387	169.34	6.90192	-119.752	128.343	-57.4515	-92.6125	128.321	-66.8672	-60.3192	127.34	-59.477	-110.473	108.977	-60.102	-76.0331	108.904	-60.4768	-53.2241	110.178	-42.9434	-105.758	91.5715	-52.1208	-76.3628	91.4697	-48.1997	-53.1546	98.5245	-25.8834	-109.399	69.933	-38.7536	-83.8793	69.4226	-35.7022	-59.2006	82.7442	-21.2164	-158.686	83.5282	-27.2004	-181.815	84.033	-5.94751	-171.904	114.208	-19.6335	
183	1.525	-163.442	135.976	3.52028	-135.967	155.633	9.66784	-113.107	168.718	4.57036	-89.8308	169.659	-3.74913	-126.78	124.981	-62.9502	-97.2277	133.617	-73.28	-71.7713	135.465	-67.0827	-118.303	105.277	-62.4404	-82.7618	112.235	-66.2857	-57.228	119.08	-47.3856	-111.056	89.0662	-54.5316	-79.1219	92.9489	-52.807	-59.9028	106.287	-35.4045	-111.5	68.8033	-40.2532	-84.7506	77.9234	-40.2531	-61.5392	88.4269	-32.2864	-162.637	81.8646	-27.1085	-181.382	74.2515	-6.55967	-178.071	107.138	-19.4826	
184	1.53333	-168.137	134.478	-0.133284	-144.156	154.128	6.01753	-122.222	166.882	-0.847917	-103.964	174.455	-7.15209	-135.37	123.143	-64.737	-110.523	131.866	-76.1908	-81.2569	135.596	-71.1369	-119.199	104.399	-67.2923	-93.8725	115.568	-72.3907	-66.0463	126.078	-55.5366	-111.111	87.3539	-58.5606	-85.0915	97.7391	-57.4987	-62.498	113.169	-38.7164	-109.759	70.232	-43.5169	-85.4261	80.8561	-44.5729	-62.9493	92.7333	-33.5669	-162.018	74.7012	-29.2476	-179.503	71.0344	-4.08514	-179.948	101.54	-22.5319	
185	1.54167	-172.97	129.299	0.683459	-149.756	151.059	1.99762	-130.034	168.58	-6.63668	-110.648	175.372	-15.0722	-140.579	121.054	-68.9786	-117.645	129.565	-79.9249	-89.6502	137.557	-75.0021	-127.976	105.297	-70.4763	-98.9827	113.331	-74.6249	-73.2562	127.628	-58.8873	-118.023	86.8321	-57.8122	-91.5251	99.1302	-62.6675	-70.3	117.302	-44.3052	-114.693	71.0774	-43.3657	-84.6103	81.2954	-45.3291	-67.3006	97.9822	-38.7758	-162.534	70.8238	-29.0625	-177.549	67.6407	-6.07791	-182.401	96.6403	-22.2179	
186	1.55	-178.207	125.748	0.777948	-154.648	147.751	1.1514	-138.221	167.823	-5.72699	-120.752	175.727	-15.0184	-147.473	115.68	-66.2639	-120.559	128.865	-83.1963	-97.4856	137.481	-79.5532	-132.356	97.5448	-67.9782	-103.033	114.123	-78.1648	-78.3104	128.7	-63.235	-117.847	86.8808	-61.8647	-90.3281	97.8738	-63.0971	-71.5241	118.149	-44.4962	-109.24	66.6655	-44.694	-89.1849	80.5563	-48.932	-69.4347	103.21	-43.4995	-159.794	61.6177	-25.4367	-177.142	59.0151	-5.06443	-185.797	90.0867	-18.4727	
187	1.55833	-177.688	115.998	1.3815	-157.98	139.993	0.593779	-142.209	163.176	-8.29294	-126.116	174.733	-19.676	-149.306	111.259	-69.3069	-131.314	123.714	-84.6109	-100.205	137.979	-82.1688	-135.341	98.2548	-72.0559	-107.37	109.181	-80.4985	-84.2523	127.07	-67.0991	-120.893	84.5659	-62.9843	-95.87	98.6576	-65.8712	-77.4056	116.403	-50.8529	-109.531	64.7351	-45.2304	-86.9981	78.7136	-49.1785	-70.3483	101.505	-43.5849	-159.253	63.3157	-27.9485	-172.368	53.1558	-1.95479	-182.485	80.6966	-20.1525	
188	1.56667	-179.932	112.78	1.89999	-160.783	139.623	-0.707924	-145.674	159.738	-11.8682	-127.758	169.755	-23.8875	-153.632	106.374	-68.2765	-135.284	119.708	-85.2016	-105.387	133.11	-84.7245	-136.985	88.8771	-67.9454	-112.427	106.959	-81.5615	-86.0566	130.342	-67.8498	-120.372	77.7931	-61.2792	-94.9125	94.7584	-66.2837	-80.1176	118.706	-50.7383	-109.677	65.4253	-46.6568	-88.3726	76.4689	-49.3567	-71.2447	98.9135	-43.8581	-156.08	53.2878	-26.9303	-173.015	48.2507	2.99444	-182.491	75.5767	-19.596	
189	1.575	-179.664	107.799	2.6967	-160.408	131.127	-1.84466	-149.965	155.435	-10.3933	-133.426	169.529	-24.8086	-157.826	101.918	-65.5117	-137.163	115.805	-85.4369	-112.464	130.811	-87.569	-138.688	86.5588	-68.3285	-113.124	101.781	-81.5214	-87.9293	125.066	-69.2171	-122.447	77.6085	-62.1082	-94.0324	94.0864	-66.4749	-81.2454	119.409	-52.4217	-108.613	61.708	-45.8523	-91.167	77.6801	-50.6527	-74.1725	102.979	-46.2434	-158.776	50.9431	-21.1851	-170.648	42.6777	5.09541	-182.587	72.5745	-14.4172	
190	1.58333	-182.023	104.093	4.2269	-163.263	130.489	-1.54295	-153	151.995	-12.9386	-140.558	165.534	-25.5819	-157.791	95.2658	-63.5489	-137.889	107.137	-82.4919	-113.759	127.92	-87.0812	-138.584	82.0924	-68.3081	-115.258	102.458	-82.2661	-91.7599	122.378	-70.7162	-120.292	69.516	-57.1029	-99.9752	91.5558	-67.1388	-82.534	115.828	-52.6658	-111.509	58.6763	-40.8542	-90.6305	77.3208	-50.9739	-75.9482	104.915	-47.8415	-150.423	46.2623	-21.7779	-163.76	38.7646	4.36548	-183.745	65.9065	-10.3951	
191	1.59167	-180.59	96.2704	2.96235	-168.085	122.856	0.86523	-159.111	144.03	-11.2928	-144.79	158.451	-27.4764	-158.324	90.3018	-64.8877	-141.117	105.327	-85.1824	-117.791	122.385	-87.2138	-139.381	77.7264	-67.6815	-116.703	94.6085	-81.5589	-95.2745	123.207	-70.9138	-123.385	71.0293	-60.717	-99.1562	89.9935	-66.6413	-86.5956	115.105	-53.2341	-111.191	59.2431	-42.3332	-90.6758	74.6861	-51.5838	-81.8079	105.358	-47.0653	-150.043	41.3049	-20.1448	-161.552	34.6766	5.31367	-179.073	57.2207	-8.78351	
192	1.6	-185.206	92.0029	6.11692	-172.123	119.931	-1.38995	-162.151	139.153	-15.4894	-151.256	158.211	-29.0287	-160.652	83.9363	-67.3448	-143.577	96.6821	-83.4522	-124.298	122.634	-88.0148	-141.007	71.7604	-65.4594	-118.704	91.191	-80.606	-100.621	119.186	-73.1015	-120.896	65.128	-58.6796	-101.45	87.7131	-68.328	-94.5946	117.112	-55.8403	-107.101	53.6883	-40.2013	-89.7085	72.7955	-51.1682	-81.3664	103.177	-47.6589	-148.788	37.4762	-15.219	-162.261	31.7573	11.6477	-179.219	52.4476	-8.11826	
